<svg id="Layer_1" data-name="Layer 1" xmlns="http://www.w3.org/2000/svg" viewBox="0 0 1695.77 372.33"><defs><style>.cls-1{fill:#333;}.cls-2{fill:#38bfc3;}</style></defs><title>LOGO maisonduweb-agile-01</title><path class="cls-1" d="M1847.07,271.05q-648.18,0-1296.37,0c-1.83,0-2.53-.4-2.3-2.3.19-1.61-.52-3.78.3-4.73,1-1.13,3.19-.36,4.87-.36q646.75,0,1293.5,0Z" transform="translate(-151.3 -81.53)"/><path class="cls-1" d="M676.24,147.84c5-4.53,10-8.79,15.91-11.73,9.6-4.8,19.27-5,28.48.85,6.32,4,9.26,10.48,10.66,17.65a61.61,61.61,0,0,1,.86,12q0,27.51,0,55c0,1.61-.42,2-2,2q-12-.13-23.93,0c-1.68,0-2-.53-2-2.05q.09-23.52,0-47a53.09,53.09,0,0,0-.71-9.75c-1.2-6.34-3.79-8.58-10.1-9-5.23-.32-9.43,2.09-13.55,4.81-.88.59-.57,1.46-.57,2.23q0,29.15,0,58.29c0,1.89-.33,2.52-2.39,2.49-7.9-.14-15.81-.1-23.72,0-1.46,0-1.78-.4-1.78-1.81q.09-23,0-46a81.94,81.94,0,0,0-.67-10.37c-1.06-7.95-5.29-10-12.88-9.51-4.09.26-7.35,2.59-10.71,4.63-1,.61-.67,1.55-.67,2.38,0,19.5-.05,39,0,58.5,0,1.84-.48,2.23-2.24,2.21-7.91-.11-15.82-.09-23.73,0-1.54,0-1.91-.39-1.91-1.92q.07-42.33,0-84.67c0-1.36.22-1.87,1.73-1.85q12.18.12,24.34,0c1.45,0,1.86.37,1.79,1.8-.13,2.43,0,4.87,0,7.64a120.32,120.32,0,0,1,9.9-7.19,29.18,29.18,0,0,1,24.8-3.44C668.45,136.08,673.2,141,676.24,147.84Z" transform="translate(-151.3 -81.53)"/><path class="cls-1" d="M1282.1,214.74c-2.64,2-4.9,3.7-7.21,5.36-14.18,10.14-36.93,8.63-46.51-12.8-4.73-10.57-5.74-21.67-5-33.06a51.17,51.17,0,0,1,7.18-23.71c5.37-8.81,12.84-14.92,23.07-17.07a36.68,36.68,0,0,1,23.66,2.7c1.52.72,3,1.46,4.83,2.32v-2.3c0-11,0-22,0-32.93,0-1.63.3-2.23,2.08-2.2,8,.1,16,.08,23.93,0,1.42,0,1.81.34,1.81,1.78q-.06,59.52,0,119c0,1.27-.24,1.74-1.64,1.73-8.18-.08-16.36-.06-24.54,0-1.25,0-1.68-.33-1.63-1.6C1282.17,219.7,1282.1,217.4,1282.1,214.74Zm0-37.11c0-5,0-9.95,0-14.93,0-2.3,1-5.23-.38-6.75-1.52-1.72-4.58-1.63-7.07-2-10.11-1.7-18.16,3-21.21,12.74a47.39,47.39,0,0,0,0,27.51,12.89,12.89,0,0,0,10.27,9.67c6.45,1.36,12.2-.41,17.52-4.06.92-.63.89-1.4.89-2.29Q1282.09,187.56,1282.1,177.63Z" transform="translate(-151.3 -81.53)"/><path class="cls-2" d="M1747.24,144.11a66.82,66.82,0,0,1,10-7c11.28-6,22.6-6.51,33.63.47,6.05,3.83,9.67,9.79,11.78,16.46,5.11,16.21,5.69,32.52-1.06,48.41-4.52,10.65-12.13,18.65-23.7,21.67a37.53,37.53,0,0,1-28.57-3.81c-1.55-.87-2.39-1-2.57,1.06-.14,1.73-1,2.25-2.82,2.22-7.5-.11-15-.09-22.49,0-1.5,0-2-.35-2-1.92q.06-59.3,0-118.6c0-1.68.55-2,2.09-2,7.91.06,15.82.07,23.72,0,1.61,0,2,.43,2,2-.07,12.81,0,25.63,0,38.44Zm0,36.84c0,6.88,0,13.76,0,20.64a1.76,1.76,0,0,0,1.45,2,31.07,31.07,0,0,0,11.46,1.23c8.07-.52,13.31-4.47,15.79-12.14,2.87-8.91,2.69-17.95.59-26.95-1.35-5.78-4.72-9.93-10.89-11.05-6-1.08-11.57.29-16.81,3.32a2.71,2.71,0,0,0-1.6,2.71C1747.28,167.46,1747.24,174.21,1747.24,181Z" transform="translate(-151.3 -81.53)"/><path class="cls-1" d="M800.89,214.28c-5.42,5.25-11.11,9.1-18,10.62-9.46,2.11-18.7,1.85-26.77-4.47-8.5-6.64-11.19-15.65-10.33-26.07,1.18-14.27,10.42-21,22.92-24.72,6.87-2,14-2.66,21.08-3.32,3.45-.33,6.91-.59,10.37-.82.89-.06.89-.41.85-1.16-.33-6.36-3.59-9.7-10.59-11.15-11.68-2.41-22.62.18-33.31,4.68-.38.15-.73.37-1.11.5-2.3.73-3,.21-3-2.2,0-5.79.05-11.59,0-17.39,0-1.31.33-1.93,1.63-2.24,12.63-3,25.4-4.62,38.4-3.7a64.82,64.82,0,0,1,17.32,3.31c11.56,4.11,18.06,13.31,18.1,25.84.06,19.91,0,39.82,0,59.73,0,1.33-.2,1.9-1.74,1.89q-12.06-.12-24.14,0c-1.53,0-1.79-.54-1.73-1.88C801,219.44,800.89,217.14,800.89,214.28Zm0-22.82v-5.31c0-3.79,0-3.79-3.64-3.53-.27,0-.54,0-.81,0-4.91.55-9.86.88-14.57,2.52-6.77,2.34-9.13,6.84-7.69,14.42a7.17,7.17,0,0,0,5.06,5.84c7.83,2.56,14.82.93,21-4.4a2,2,0,0,0,.62-1.82C800.88,196.63,800.89,194.05,800.89,191.46Z" transform="translate(-151.3 -81.53)"/><path class="cls-2" d="M1675.32,184.7c-9.41,0-18.82,0-28.23,0-1.43,0-1.72.25-1.54,1.8,1.58,13.3,10.83,18.08,21.69,19.14,12.09,1.18,22.79-2.38,32.65-9.11a6.08,6.08,0,0,1,.66-.47c2.14-1.09,3.46-.32,3.46,2,0,6.2-.06,12.41,0,18.61a2.6,2.6,0,0,1-1.93,2.82,82.82,82.82,0,0,1-36,6.47c-9.49-.39-18.78-1.85-27.29-6.46-11-6-17.66-15.24-20.06-27.52-2.24-11.46-1.78-22.78,2.77-33.63,5.74-13.69,16.16-21.85,30.68-24.77a60.53,60.53,0,0,1,25.91.21c14.5,3.38,22.84,12.82,26.14,27.08,1.72,7.44,1.3,15,1.4,22.56,0,1.62-1,1.28-1.93,1.28Q1689.54,184.72,1675.32,184.7Zm-13.54-16.76c4.9,0,9.8,0,14.71,0,1.29,0,2.09-.05,1.69-1.7-.3-1.31-.22-2.72-.52-4-1.24-5.42-3.84-9.72-9.63-11.26a20.63,20.63,0,0,0-10.86,0c-7.77,2.12-11,8.8-11.81,15.72-.16,1.3.64,1.22,1.5,1.22C1651.83,167.93,1656.8,167.94,1661.78,167.94Z" transform="translate(-151.3 -81.53)"/><path class="cls-1" d="M973.53,179.34c.06-7.66,1-15.15,4.05-22.28,4.93-11.55,13.44-19.17,25.47-22.57a57.8,57.8,0,0,1,33.76.43c12.81,4.09,21.33,12.91,25.32,25.61,4.14,13.16,4.17,26.57-.7,39.58-5.61,15-16.88,23.16-32.55,25.52-9.48,1.43-18.88,1.07-28-2.11-13.9-4.87-22.1-15-25.69-29A56.22,56.22,0,0,1,973.53,179.34Zm63.06.35c-.25-5.24-.41-10.47-2.08-15.5-1.62-4.88-4.06-9.29-9.29-10.87-9.07-2.74-17.56-.26-21.05,10.3-2.2,6.66-2.24,13.47-2,20.34a36.76,36.76,0,0,0,2.71,13.08c2.5,6.08,7.21,9.1,13.58,9.3,6.6.21,11.85-2.26,14.91-8.58C1036.13,192,1036.27,185.85,1036.59,179.69Z" transform="translate(-151.3 -81.53)"/><path class="cls-1" d="M1385.16,214.07c-4.63,3.69-8.94,7-13.92,9.31-10.08,4.62-26,3.73-33.93-5.71-3.75-4.45-5.64-9.67-6.57-15.31a75.83,75.83,0,0,1-.78-12.6q0-26.3,0-52.58c0-1.6.4-2,2-2,8,.08,16,.1,23.94,0,1.81,0,2,.57,2,2.18q-.09,19.83,0,39.68c0,5.64-.15,11.29,1,16.88,1.55,7.81,6.6,9.18,12.81,8.94,4.37-.17,8.25-1.93,12-4.11a2.74,2.74,0,0,0,1.53-2.75c0-19.5,0-39-.08-58.5,0-1.85.44-2.35,2.31-2.32,7.91.11,15.82.08,23.73,0,1.36,0,1.84.23,1.84,1.74q-.08,42.44,0,84.89c0,1.45-.39,1.81-1.81,1.79q-12.17-.09-24.34,0c-1.33,0-1.76-.34-1.71-1.69C1385.23,219.41,1385.16,216.92,1385.16,214.07Z" transform="translate(-151.3 -81.53)"/><path class="cls-1" d="M1106.92,144.74a73.34,73.34,0,0,1,12.34-8.45,32.28,32.28,0,0,1,25.29-2c9.44,3,14.15,10.22,16.35,19.42a48.49,48.49,0,0,1,1.27,11.33q0,28.32,0,56.65c0,1.7-.54,2-2,1.95-7.91-.07-15.82-.08-23.73,0-1.65,0-2.14-.32-2.13-2.08q.12-22.08,0-44.17a91.3,91.3,0,0,0-.85-11.8c-.9-6.62-4.36-9.47-11.13-9.75-5.49-.22-10.2,1.81-14.66,4.73-1,.65-.72,1.53-.72,2.36,0,19.5,0,39,0,58.49,0,1.77-.37,2.26-2.2,2.23-7.83-.12-15.68-.09-23.52,0-1.52,0-1.93-.36-1.93-1.91q.07-42.34,0-84.68c0-1.35.23-1.87,1.74-1.85q12.06.12,24.13,0c1.48,0,1.83.41,1.76,1.82C1106.83,139.43,1106.92,141.89,1106.92,144.74Z" transform="translate(-151.3 -81.53)"/><path class="cls-1" d="M891.3,207.16c0-3.13,0-6.27,0-9.4,0-.77-.46-1.88.37-2.23a3,3,0,0,1,3,.63A47.83,47.83,0,0,0,904,202c7.31,3.44,14.9,5.4,23,4.81a23.1,23.1,0,0,0,7.68-1.8c2.45-1.08,4.15-2.72,4.11-5.71s-1.71-4.59-4.24-5.57c-4.89-1.88-10.06-2.66-15.15-3.74-7.15-1.51-14.05-3.62-19.76-8.51-5.31-4.53-7.52-10.46-8-17.23-1-14.35,8.8-23.31,18.73-27.45,9.75-4.05,19.89-4.61,30.22-3.76a72.15,72.15,0,0,1,20.65,5,2.64,2.64,0,0,1,2,2.94c-.14,6.13,0,12.27-.08,18.4,0,.68.46,1.68-.39,2a2.82,2.82,0,0,1-2.7-.39,52.48,52.48,0,0,0-12.87-6.88c-7.2-2.41-14.52-3.53-21.92-.91-2.6.92-5.09,2.2-5.44,5.41a5.62,5.62,0,0,0,3.55,6.06c4.14,2,8.62,2.78,13.07,3.63,7.56,1.43,15,3.1,21.4,7.77,5.88,4.32,8.63,10.24,9,17.45.92,16.37-10,24.77-20.45,28.81-9.27,3.6-18.91,4.09-28.68,3.42a80.12,80.12,0,0,1-24.8-6,2.5,2.5,0,0,1-1.83-2.85C891.4,213.71,891.3,210.44,891.3,207.16Z" transform="translate(-151.3 -81.53)"/><path class="cls-1" d="M848.59,179.39c0-14,0-28.09-.05-42.13,0-1.73.45-2.12,2.13-2.1,7.91.1,15.82.08,23.73,0,1.42,0,2,.2,2,1.84q-.09,42.33,0,84.67c0,1.52-.37,1.94-1.91,1.92-8-.08-16-.1-23.93,0-1.74,0-2-.62-2-2.1C848.61,207.48,848.59,193.43,848.59,179.39Z" transform="translate(-151.3 -81.53)"/><path class="cls-1" d="M1735.7,382.88a155.59,155.59,0,0,0,17.82-6.4c17.28-7.42,28.07-20.34,33-38.39a161.4,161.4,0,0,0,4.88-24.9c.12-1.1.38-1.43,1.48-1.09,3.17,1,6.38,1.82,9.54,2.81,2.37.75,2.67,2,.75,3.35-1.66,1.2-1.23,2.93-1.49,4.41a129.48,129.48,0,0,1-8.88,30.34c-6.13,13.67-16.39,23.33-29.23,30.56a118.51,118.51,0,0,1-18.19,8.05,2.19,2.19,0,0,1-2.92-.73C1740.37,388.22,1738.1,385.69,1735.7,382.88Z" transform="translate(-151.3 -81.53)"/><path class="cls-1" d="M862.45,122.87c-4.29,0-8.59,0-12.88,0-1.14,0-1.69-.13-1.68-1.51.08-6.27.06-12.54,0-18.82,0-1.13.28-1.5,1.46-1.5q13.1.07,26.18,0c1.24,0,1.64.32,1.62,1.6q-.09,9.3,0,18.61c0,1.23-.35,1.65-1.62,1.62C871.18,122.82,866.82,122.87,862.45,122.87Z" transform="translate(-151.3 -81.53)"/><path class="cls-1" d="M1731.46,346.06c-.68.14-.72-.53-.87-.88A201.63,201.63,0,0,0,1719,321.94c-.47-.81-.31-1.14.46-1.55,2.63-1.39,5.26-2.8,7.83-4.29.87-.51,1.16-.1,1.54.53a200.48,200.48,0,0,1,12,23.27c.27.63.53,1.09-.26,1.5-2.89,1.49-5.76,3-8.64,4.5A2.7,2.7,0,0,1,1731.46,346.06Z" transform="translate(-151.3 -81.53)"/><path class="cls-1" d="M1768,332.47c-.07.55-.57.66-1,.87-2.65,1.37-5.32,2.71-7.93,4.16-1,.54-1.3.32-1.73-.65a141.63,141.63,0,0,0-11.42-21.31c-.54-.8-.57-1.18.39-1.61,2.71-1.23,5.4-2.52,8.07-3.85.74-.37,1.22-.32,1.69.37a136.66,136.66,0,0,1,11.65,21.43Z" transform="translate(-151.3 -81.53)"/><path class="cls-2" d="M1523.19,210.85c-5,4.54-10,8.8-15.91,11.74-9.6,4.8-19.27,5-28.47-.85-6.32-4-9.26-10.48-10.66-17.65a62.4,62.4,0,0,1-.87-12q0-27.51,0-55c0-1.62.42-2,2-2q12,.12,23.94,0c1.68,0,2,.52,2,2q-.08,23.52,0,47a53.14,53.14,0,0,0,.7,9.75c1.2,6.34,3.8,8.57,10.11,9,5.23.32,9.42-2.09,13.54-4.81.88-.59.58-1.46.58-2.23,0-19.43,0-38.86,0-58.29,0-1.9.33-2.53,2.39-2.49,7.91.14,15.82.1,23.73,0,1.45,0,1.78.4,1.77,1.81q-.08,23,0,46a80.13,80.13,0,0,0,.67,10.37c1.05,8,5.29,10,12.87,9.5,4.09-.25,7.35-2.58,10.71-4.62,1-.62.68-1.55.68-2.38,0-19.5,0-39,0-58.5,0-1.85.48-2.23,2.25-2.21,7.91.1,15.82.09,23.72,0,1.54,0,1.91.39,1.91,1.91q-.08,42.34,0,84.68c0,1.36-.22,1.86-1.73,1.85q-12.17-.12-24.34,0c-1.45,0-1.86-.37-1.78-1.81.12-2.42,0-4.86,0-7.64a120.49,120.49,0,0,1-9.9,7.2,29.16,29.16,0,0,1-24.79,3.44C1531,222.61,1526.24,217.71,1523.19,210.85Z" transform="translate(-151.3 -81.53)"/><path class="cls-2" d="M513.1,360.33c-1.14-5.75-3.86-19.49-5.11-25.77q-9-45.19-17.93-90.41c-6-30.13-15.94-104.3-26.31-133.22-7.8-21.74-34-31.87-53.17-28.88C400.49,83.62,395.92,85.58,386,88c-1,.25-2.44.11-1.36,2,7.57,13.18,9.75,27.69,9.82,42.54.18,40,.08,80,.09,120,0,.35,0,.7,0,1-.19,2.49-3.18,5.27-5.67,5.27h-38.8c-4.25,0-6.77-2.55-6.77-6.85,0-31.16.05-62.31,0-93.47,0-7.88,0-15.77-1.38-23.59-1.47-8.42-5.36-11.75-13.9-12.05-5.88-.22-10.35,2.8-14.92,5.87-2.54,1.71-3.5,3.63-3.48,6.8.13,38.79.08,77.59.08,116.38,0,4.47-2.45,6.91-6.94,6.91H265.24c-4.31,0-6.79-2.47-6.79-6.78,0-24.91,0-49.82,0-74.72,0-10.85,0-21.69-.48-32.52a52.16,52.16,0,0,0-1.93-13.07c-1.34-4.4-3.92-7.47-8.63-8.38a22,22,0,0,0-8.51,0c-4.77,1-8.41,3.92-12.24,6.59a4.2,4.2,0,0,0-1.91,3.92c.07,15.79,0,31.59,0,47.38v70.82c0,4.24-2.57,6.78-6.83,6.78H180.74c-4.6,0-7.07-2.47-7.07-7.08q0-55.06,0-110.13c0-2.12-.36-2.65-2.6-2.07-8.42,2.16-15.07,20.18-15.07,20.18-5.34,16.1-4.72,36.62-4.72,36.62.79,33.34,13.16,66.44,17.92,90.41q8.19,41.13,16.42,82.24Q195,415.87,195,416c3.21,15.23,22.39,41.63,49.45,37.48,0,0,32.44-7.22,34.59-7.73a57.53,57.53,0,0,1-5.72-8.07c-7.34-12.57-9.71-26.45-10-40.67-.49-29.32.2-58.64.35-88,.06-11.63.07-23.26.12-34.89A6.28,6.28,0,0,1,270,268l38.77.33a6.3,6.3,0,0,1,6.54,6.77c-.12,6.51-.3,13-.32,19.51q-.14,40.88-.19,81.75c0,6,.15,12,1.62,17.82.93,3.74,2.51,7.06,6.3,8.7a18.39,18.39,0,0,0,10.7,1.19c5.47-1,9.71-4.4,14-7.69.91-.71.72-1.68.72-2.62q.24-42.69.46-85.38c.06-11.19.09-22.38.15-33.58a6.24,6.24,0,0,1,6.28-6.3l39,.32a6.14,6.14,0,0,1,6.15,6.33c-.11,11.19-.32,22.37-.37,33.56q-.14,30.58-.12,61.18c0,7.28,0,14.56,1.09,21.8,1.59,10.36,7.68,14.72,18,12.74,4.95-.95,8.69-4.13,12.66-6.89A3.49,3.49,0,0,0,433,394.3c.16-20.21-.09-40.43.37-60.64.21-9.37.09-18.74.11-28.12q0-15.09.05-30.2A6.3,6.3,0,0,1,439.8,269q9.88,0,19.78.09c6.33,0,12.67.16,19,.11a5.84,5.84,0,0,1,4.63,2.19c2.11,2.2,1.45,4.66,1.43,7.1-.14,21.86,0,43.73-.32,65.59-.27,16.57-.14,33.15-.27,49.72,0,2,.19,2.72,2.48,2.13,2.83-.72,4.7-1.22,6.18-1.62v0a39.62,39.62,0,0,0,5.5-1.53,14.09,14.09,0,0,0,3.9-1.7C517.74,382.85,514.39,365.23,513.1,360.33Z" transform="translate(-151.3 -81.53)"/><path class="cls-1" d="M627.78,376.32a14,14,0,0,1-1.3-4.11,18.9,18.9,0,0,1-13.22,4.92q-7.57,0-12.37-3.78a11.52,11.52,0,0,1-4.8-9.37,12.05,12.05,0,0,1,6-10.81q6-3.76,17.1-3.77h6.94v-2.89a7.16,7.16,0,0,0-2.19-5.48q-2.19-2.05-6.65-2a10.92,10.92,0,0,0-6.33,1.69,5,5,0,0,0-2.47,4.29H597.16a10.19,10.19,0,0,1,2.75-6.78,18.33,18.33,0,0,1,7.47-4.95,29.61,29.61,0,0,1,10.54-1.79q8.83,0,14.1,3.89a13.16,13.16,0,0,1,5.39,10.94v19.87a20.13,20.13,0,0,0,1.91,9.49v.69Zm-12.42-7.13a14.31,14.31,0,0,0,6.3-1.42,10.41,10.41,0,0,0,4.45-3.83v-8.31H620q-6.28,0-9.44,1.92A6,6,0,0,0,607.4,363a5.44,5.44,0,0,0,2.17,4.54A9.13,9.13,0,0,0,615.36,369.19Z" transform="translate(-151.3 -81.53)"/><path class="cls-1" d="M670.06,354q0-10.26,5.51-16.39t14.63-6.13q8.61,0,13.54,5.26l.52-4.44h10.19V375q0,8.67-6.17,13.68t-16.63,5a30.16,30.16,0,0,1-10.82-2,19.17,19.17,0,0,1-8-5.27l5.35-5.95A17.15,17.15,0,0,0,691,385.85q5.63,0,8.88-2.67t3.26-7.84v-3q-4.89,4.77-13,4.76A18.68,18.68,0,0,1,675.66,371Q670.05,364.85,670.06,354Zm11.26.86q0,6.63,3.09,10.44a10.44,10.44,0,0,0,8.59,3.81q6.84,0,10.14-5.13V344.55q-3.21-5-10-5a10.51,10.51,0,0,0-8.68,3.86Q681.32,347.28,681.32,354.82Z" transform="translate(-151.3 -81.53)"/><path class="cls-1" d="M771,377.13q-10.75,0-17.43-5.92t-6.68-15.78v-1.22a23.69,23.69,0,0,1,2.91-11.79,20.52,20.52,0,0,1,8.17-8.09,24,24,0,0,1,11.72-2.89q10.29,0,15.89,5.74t5.61,16.25v4H758.3a12.49,12.49,0,0,0,4.17,8.64,13.51,13.51,0,0,0,9.19,3.17,16.13,16.13,0,0,0,12.65-5.49l6.1,5.09a19.85,19.85,0,0,1-8.07,6.12A28.23,28.23,0,0,1,771,377.13Zm-1.35-37.75a10.19,10.19,0,0,0-7.52,2.85,13.86,13.86,0,0,0-3.65,7.94H780v-.73c-.25-3.31-1.25-5.82-3-7.51A10.17,10.17,0,0,0,769.66,339.38Z" transform="translate(-151.3 -81.53)"/><path class="cls-1" d="M833.24,332.26l.33,5.09q5.58-5.91,14.65-5.91,15.74,0,16,15.76v29.12H852.92V347.77q0-4.18-2.07-6.21c-1.38-1.34-3.63-2-6.77-2q-6.84,0-10.19,5.41v31.36H822.58V332.26Z" transform="translate(-151.3 -81.53)"/><path class="cls-1" d="M919.21,369.23a11.18,11.18,0,0,0,7-2.15,7.08,7.08,0,0,0,3-5.34h10.66a13.43,13.43,0,0,1-2.93,7.68,18.86,18.86,0,0,1-7.45,5.64,24.85,24.85,0,0,1-10.14,2.07q-10.58,0-16.75-6t-6.19-16.54v-1q0-10.07,6.14-16.11t16.75-6.05q9,0,14.63,4.58a15.57,15.57,0,0,1,5.94,12H929.21a8.51,8.51,0,0,0-3-6.23,10.28,10.28,0,0,0-7-2.45c-3.66,0-6.49,1.16-8.47,3.49s-3,5.84-3,10.56V355q0,7.17,3,10.69T919.21,369.23Z" transform="translate(-151.3 -81.53)"/><path class="cls-1" d="M993.35,377.13q-10.74,0-17.42-5.92t-6.68-15.78v-1.22a23.69,23.69,0,0,1,2.91-11.79,20.52,20.52,0,0,1,8.17-8.09,24,24,0,0,1,11.72-2.89q10.29,0,15.89,5.74t5.61,16.25v4h-32.9a12.49,12.49,0,0,0,4.17,8.64,13.51,13.51,0,0,0,9.19,3.17,16.13,16.13,0,0,0,12.65-5.49l6.1,5.09a19.85,19.85,0,0,1-8.07,6.12A28.25,28.25,0,0,1,993.35,377.13ZM992,339.38a10.19,10.19,0,0,0-7.52,2.85,13.8,13.8,0,0,0-3.65,7.94h21.54v-.73c-.25-3.31-1.25-5.82-3-7.51A10.17,10.17,0,0,0,992,339.38Z" transform="translate(-151.3 -81.53)"/><path class="cls-1" d="M1135.83,362.68l8-30.42h11l-13.73,44.06h-9.31L1121,346.06l-10.61,30.26h-9.31l-13.77-44.06h11l8.14,30.09,10.33-30.09h8.51Z" transform="translate(-151.3 -81.53)"/><path class="cls-1" d="M1207.38,377.13q-10.76,0-17.43-5.92t-6.68-15.78v-1.22a23.69,23.69,0,0,1,2.91-11.79,20.52,20.52,0,0,1,8.17-8.09,24,24,0,0,1,11.72-2.89q10.29,0,15.89,5.74t5.61,16.25v4h-32.9a12.49,12.49,0,0,0,4.17,8.64,13.51,13.51,0,0,0,9.19,3.17,16.13,16.13,0,0,0,12.65-5.49l6.1,5.09a19.85,19.85,0,0,1-8.07,6.12A28.23,28.23,0,0,1,1207.38,377.13ZM1206,339.38a10.19,10.19,0,0,0-7.52,2.85,13.8,13.8,0,0,0-3.65,7.94h21.54v-.73c-.25-3.31-1.25-5.82-3-7.51A10.17,10.17,0,0,0,1206,339.38Z" transform="translate(-151.3 -81.53)"/><path class="cls-1" d="M1303.3,354.74q0,10.26-5.23,16.33t-14.41,6.06q-8.84,0-13.77-5.58l-.56,4.77h-10.24V313.77h11.31v22.72q4.89-5,13.17-5.05,9.21,0,14.47,6t5.26,16.74Zm-11.31-.86q0-7.17-2.88-10.75t-8.38-3.58q-7.35,0-10.33,5.62v18.16q3,5.75,10.43,5.74,5.3,0,8.18-3.46t3-10.47Z" transform="translate(-151.3 -81.53)"/><path class="cls-1" d="M1412.14,376.32a13.9,13.9,0,0,1-1.31-4.11,18.89,18.89,0,0,1-13.21,4.92q-7.59,0-12.38-3.78a11.51,11.51,0,0,1-4.79-9.37,12,12,0,0,1,6-10.81q6-3.76,17.1-3.77h6.93v-2.89a7.16,7.16,0,0,0-2.19-5.48q-2.18-2.05-6.65-2a10.94,10.94,0,0,0-6.33,1.69,5,5,0,0,0-2.46,4.29h-11.31a10.18,10.18,0,0,1,2.74-6.78,18.33,18.33,0,0,1,7.47-4.95,29.61,29.61,0,0,1,10.54-1.79c5.9,0,10.59,1.3,14.1,3.89a13.17,13.17,0,0,1,5.4,10.94v19.87a20,20,0,0,0,1.91,9.49v.69Zm-12.43-7.13a14.33,14.33,0,0,0,6.31-1.42,10.32,10.32,0,0,0,4.44-3.83v-8.31h-6.09q-6.28,0-9.45,1.92a6,6,0,0,0-3.17,5.41,5.47,5.47,0,0,0,2.17,4.54A9.13,9.13,0,0,0,1399.71,369.19Z" transform="translate(-151.3 -81.53)"/><path class="cls-1" d="M1454.41,354q0-10.26,5.51-16.39t14.64-6.13q8.61,0,13.54,5.26l.51-4.44h10.19V375q0,8.67-6.17,13.68t-16.63,5a30.2,30.2,0,0,1-10.82-2,19.17,19.17,0,0,1-8-5.27l5.35-5.95a17.15,17.15,0,0,0,12.85,5.42q5.63,0,8.89-2.67t3.25-7.84v-3q-4.87,4.77-13,4.76A18.64,18.64,0,0,1,1460,371Q1454.41,364.85,1454.41,354Zm11.26.86q0,6.63,3.09,10.44a10.47,10.47,0,0,0,8.59,3.81q6.84,0,10.14-5.13V344.55q-3.21-5-10-5a10.52,10.52,0,0,0-8.68,3.86Q1465.67,347.28,1465.67,354.82Z" transform="translate(-151.3 -81.53)"/><path class="cls-1" d="M1533.21,320.81a4.89,4.89,0,0,1,1.65-3.78,6.74,6.74,0,0,1,4.72-1.51,6.84,6.84,0,0,1,4.75,1.51,4.85,4.85,0,0,1,1.68,3.78,4.76,4.76,0,0,1-1.68,3.73,6.93,6.93,0,0,1-4.75,1.49,6.83,6.83,0,0,1-4.72-1.49A4.8,4.8,0,0,1,1533.21,320.81Zm12,55.51h-11.3V332.26h11.3Z" transform="translate(-151.3 -81.53)"/><path class="cls-1" d="M1592.33,376.32H1581V313.77h11.31Z" transform="translate(-151.3 -81.53)"/><path class="cls-1" d="M1649.58,377.13q-10.74,0-17.42-5.92t-6.68-15.78v-1.22a23.69,23.69,0,0,1,2.91-11.79,20.55,20.55,0,0,1,8.16-8.09,24,24,0,0,1,11.73-2.89q10.29,0,15.89,5.74t5.61,16.25v4h-32.9a12.52,12.52,0,0,0,4.16,8.64,13.55,13.55,0,0,0,9.19,3.17,16.15,16.15,0,0,0,12.66-5.49l6.1,5.09a19.82,19.82,0,0,1-8.08,6.12A28.16,28.16,0,0,1,1649.58,377.13Zm-1.35-37.75a10.18,10.18,0,0,0-7.51,2.85,13.8,13.8,0,0,0-3.65,7.94h21.54v-.73c-.25-3.31-1.26-5.82-3-7.51A10.18,10.18,0,0,0,1648.23,339.38Z" transform="translate(-151.3 -81.53)"/></svg>